<svg width="90" height="81" viewBox="0 0 90 81" fill="none" xmlns="http://www.w3.org/2000/svg">
<path d="M83.7 35.94C77.4 31.11 71.29 26.06 65.19 21C59.16 15.99 53.14 10.97 46.96 6.14998C44.98 4.60998 42.31 1.54998 39.75 1.01998C37.92 0.639976 35.64 1.61998 33.89 2.08998C33.83 2.09998 33.79 2.12998 33.74 2.14998C33.18 1.89998 32.56 1.70998 31.85 1.64998C29.41 1.40998 26.41 2.45998 24.01 2.88998C19.27 3.74998 14.55 4.68998 9.88004 5.87998C6.33004 6.77998 1.49004 6.87998 1.00004 11.18C0.490039 15.69 0.670039 20.53 0.730039 25.08C0.790039 29.3 0.91004 34.43 2.04004 38.51C3.94004 45.37 12.93 50.41 18.23 54.31C25.48 59.65 32.49 65.31 39.59 70.85C42.45 73.08 45.31 75.33 48.27 77.43C49.46 78.27 51.24 79.89 52.8 80.01C52.93 80.02 53.05 80.01 53.17 79.99C53.27 79.98 53.38 79.97 53.48 79.94C54.45 79.67 55.34 78.69 56.06 77.89C61.02 82.26 65.86 73.64 68.62 70.35C72.22 66.05 75.73 61.67 79.2 57.26C82.43 53.15 86.24 49.02 88.9 44.5C91.45 40.13 86.82 38.33 83.7 35.94ZM52.86 77.39C51.83 77.1 50.66 75.97 49.88 75.42C47.77 73.92 45.71 72.34 43.66 70.75C38.32 66.63 33.06 62.43 27.73 58.29C22.16 53.97 16.28 50 10.91 45.44C8.19004 43.12 5.26004 40.67 4.42004 37.09C3.62004 33.69 3.44004 29.76 3.32004 26.28C3.18004 22.16 2.90004 17.53 3.51004 13.44C4.12004 9.41998 5.90004 9.56998 9.30004 8.66998C12.22 7.89998 15.17 7.22998 18.13 6.62998C21.93 5.84998 26.71 4.15998 30.58 4.35998C35.51 4.60998 41.23 10.93 44.91 13.9C52.25 19.84 59.44 25.96 66.78 31.9C70.37 34.81 74 37.67 77.69 40.46C79.7 41.98 80.87 42.61 79.11 45.1C78.15 46.46 77.12 47.77 76.11 49.1C71.55 55.12 66.9 61.08 62.11 66.93C60.14 69.33 58.16 71.73 56.09 74.04C55.31 74.92 54.08 76.79 52.86 77.39ZM87.08 42.49C87.06 43.04 85.59 44.68 85.22 45.17C80.06 52.06 74.73 58.84 69.27 65.5C67.08 68.17 64.88 70.83 62.59 73.4C61.12 75.05 59.83 77.5 57.82 75.98C59.43 74.21 60.96 72.37 62.48 70.53C67.75 64.19 72.83 57.68 77.81 51.12C79.34 49.1 82.76 45.85 83.07 43.19C83.43 40.15 78.59 37.91 76.66 36.42C67.44 29.31 58.6 21.74 49.59 14.37C45.45 10.98 41.25 7.66998 37.01 4.38998C36.82 4.24998 36.65 4.09998 36.47 3.95998C37.09 3.76998 37.71 3.61998 38.26 3.63998C40.07 3.68998 42.05 5.59998 43.41 6.64998C45.74 8.43998 48.05 10.27 50.34 12.11C54.99 15.85 59.57 19.67 64.16 23.48C68.8 27.34 73.46 31.18 78.2 34.91C80.52 36.74 83.3 38.38 85.4 40.44C86.06 41.11 87.12 41.32 87.08 42.49Z" fill="#16478E"/>
<path d="M17.98 15.33C16.73 12.17 13.6 12.09 10.92 13.4C10.81 13.44 10.7 13.5 10.59 13.58C8.33 15.28 7.38 18.25 8.72 20.83C10.09 23.47 12.71 24.32 15.2 22.62C17.45 21.08 19.04 18.02 17.98 15.33ZM14.05 20.26C12.75 21.33 11.6 21.01 10.91 19.46C10.29 18.06 10.92 16.6 12.07 15.69C13.43 15.05 15.12 14.57 15.67 16.48C16.08 17.9 15.09 19.41 14.05 20.26Z" fill="#16478E"/>
<path d="M32.4101 32.88C31.7501 31.21 30.4401 29.85 29.8001 28.16C28.6801 25.22 32.7101 23.1 34.6601 25.37C35.2701 26.08 35.6701 26.96 35.7301 27.9C35.8301 29.55 38.3901 29.27 38.2901 27.62C38.0001 22.85 31.1901 18.65 27.7801 23.24C26.0401 25.58 27.0001 28.46 28.2501 30.76C28.8001 31.77 29.6401 32.77 30.0301 33.83C31.1001 36.78 28.7701 39.26 25.6401 38.61C22.0901 37.88 18.8101 33.81 20.6501 30.32C21.4201 28.85 19.0701 27.81 18.3001 29.27C15.0001 35.55 23.9101 44.58 30.1901 40.92C32.9301 39.31 33.5001 35.67 32.4101 32.88Z" fill="#16478E"/>
<path d="M43.1701 41.54C42.0101 40.65 40.8501 39.76 39.6901 38.87C40.3001 38.09 40.9201 37.33 41.5801 36.6C42.7701 35.29 42.9901 34.9 44.8801 34.85C46.9301 34.79 47.7701 35.53 49.3001 36.83C50.5701 37.9 52.1801 35.89 50.9101 34.82C48.7901 33.03 46.2801 31.21 43.3501 32.04C40.3101 32.91 38.0501 36.7 36.2701 39.07C34.8001 41.03 31.9801 43.92 32.5801 46.65C33.2101 49.49 36.7101 51.94 39.0901 53.18C40.5601 53.95 41.6001 51.59 40.1401 50.83C39.2301 50.36 38.3101 49.78 37.5701 49.06C36.7001 48.2 35.1801 46.29 35.2601 45.07C35.3201 44.07 37.0501 42.11 38.0701 40.9C39.2301 41.79 40.3801 42.67 41.5401 43.56C42.8701 44.55 44.4801 42.55 43.1701 41.54Z" fill="#16478E"/>
<path d="M62.37 44.0199C62.32 43.9499 62.26 43.8999 62.2 43.8499C62.18 43.8299 62.16 43.8099 62.14 43.7799C54.07 36.5099 38.04 50.9099 46.35 59.6999C55.08 68.9299 69.31 52.6199 62.37 44.0199ZM60.39 45.6899C65.34 52.1799 53.78 65.3899 47.79 57.4499C42.9 50.9599 54.71 40.8999 60.39 45.6899Z" fill="#16478E"/>
<path d="M25.1401 14.42C28.1101 14.07 31.0701 13.72 34.0401 13.37C35.2701 13.22 35.0601 11.31 33.8301 11.45C30.8601 11.8 27.9001 12.15 24.9301 12.5C23.7001 12.64 23.9001 14.56 25.1401 14.42Z" fill="#16478E"/>
<path d="M30.3299 15.27C29.0899 15.35 29.2999 17.26 30.5399 17.19C32.2699 17.08 33.9599 16.77 35.6299 16.27C36.8199 15.91 36.0999 14.12 34.9199 14.48C33.4099 14.92 31.8899 15.18 30.3299 15.27Z" fill="#16478E"/>
<path d="M54.0199 65.5999C52.0099 66.0299 49.9899 66.38 47.9599 66.68C46.7299 66.86 46.9399 68.7799 48.1699 68.5999C50.1999 68.3099 52.2199 67.9499 54.2299 67.5199C55.4299 67.2599 55.2299 65.3399 54.0199 65.5999Z" fill="#16478E"/>
<path d="M52.6501 69.14C52.0201 69.44 51.3601 69.68 50.6901 69.86C50.1901 70 49.9701 70.67 50.1501 71.11C50.3601 71.64 50.9001 71.79 51.4001 71.65C52.0801 71.47 52.7301 71.23 53.3601 70.93C53.8301 70.71 54.1001 70.18 53.9001 69.68C53.7201 69.22 53.1201 68.91 52.6501 69.14Z" fill="#16478E"/>
</svg>
