<svg width="80" height="80" viewBox="0 0 80 80" fill="none" xmlns="http://www.w3.org/2000/svg">
<path d="M7.90994 74.31C9.74994 78.62 14.3899 80.53 18.5499 78.11C21.4899 76.4 23.3599 73.16 25.3499 70.47C27.3399 67.79 29.3199 65.1 31.2899 62.41C34.9499 57.42 38.5999 52.42 42.2599 47.43C42.6499 47.71 43.0299 48 43.4199 48.28C42.4099 49.65 41.4099 51.03 40.4199 52.42C40.0499 52.94 40.1499 53.62 40.6399 54.03C42.9299 55.91 44.7199 56.84 47.5899 56.84C50.8099 56.84 49.8799 58 50.4599 60.36C50.7699 61.63 51.3499 62.38 52.2399 63.3C55.1899 66.34 58.7999 68.85 62.1599 71.41C64.3899 73.11 67.0899 76.42 70.0099 74.48C72.6799 72.7 75.1899 68.59 76.9699 65.91C78.3099 63.89 80.7699 61.38 79.1899 59.02C78.1199 57.42 75.7899 55.78 74.3699 54.49C72.4599 52.74 70.4699 51.08 68.3499 49.6C66.8599 48.56 65.1399 47.24 63.3799 46.69C62.3299 46.36 58.0299 46.9 57.7199 46.26C56.7999 44.49 57.3999 42.58 56.2499 40.93C55.4599 39.79 54.1799 38.85 53.0799 38.05C52.5399 37.66 51.8899 37.8 51.4699 38.27C50.2099 39.68 49.0099 41.13 47.8199 42.59C47.3899 42.26 46.9499 41.94 46.5199 41.61C49.4299 37.64 52.3399 33.67 55.2399 29.7C61.8399 30.66 68.3199 29.15 71.9899 22.91C75.1799 17.5 74.0099 9.71996 68.6799 6.14996C68.0699 5.73996 67.2299 5.91996 66.9299 6.62996C65.6999 9.57996 64.5299 12.58 63.1899 15.47C63.1599 15.47 63.1399 15.47 63.0999 15.46C62.4099 15.35 61.2799 15.8 60.5999 15.93C59.5199 16.13 58.4499 16.34 57.3699 16.54C56.3599 14.86 55.0499 13.02 54.4099 11.23C54.4299 11.09 54.4599 10.68 54.6799 10.26C55.0099 9.61996 55.2399 8.81996 55.4999 8.14996C56.2899 6.11996 57.0799 4.08996 57.9299 2.07996C58.1999 1.43996 57.7599 0.549959 57.0199 0.509959C51.1199 0.0999589 46.2799 2.24996 43.2799 7.64996C40.3999 12.82 41.7399 18.8 45.5899 23.04C42.6699 26.77 39.6199 30.41 36.5199 34C31.5399 30.22 26.5699 26.43 21.5699 22.66C20.5199 21.87 19.3599 21.14 18.3799 20.26C17.2099 19.56 16.3599 18.55 15.8399 17.24C15.7599 16.74 15.6899 16.24 15.6099 15.74C15.2499 15.1 15.2899 14.93 14.6899 14.42C12.5399 12.57 8.41994 11.51 5.76994 10.55C3.46994 9.70996 2.88994 11.1 1.49994 13.07C0.10994 15.03 0.0799399 15.52 1.39994 17.42C2.75994 19.36 4.80994 23.2 7.00994 24.26C7.59994 24.54 8.07994 24.47 8.72994 24.51C10.6499 24.61 11.4099 24.28 13.1299 25.41C14.3299 26.2 15.4699 27.24 16.5999 28.11C21.5799 31.98 26.6099 35.78 31.6599 39.56C25.0099 47.13 18.2999 54.65 12.2699 62.68C9.83994 65.92 6.07994 70.03 7.90994 74.31ZM35.3899 35.3C34.5299 36.29 33.6699 37.28 32.8099 38.27C28.5099 35.05 24.2199 31.81 19.9699 28.53C17.3499 26.51 14.4999 23.01 11.0699 22.79C9.84994 22.71 8.56994 23.06 7.50994 22.37C6.54994 21.74 5.72994 20.28 5.02994 19.38C4.28994 18.43 3.02994 17.25 2.59994 16.12C2.08994 14.81 2.65994 14.4 3.54994 13.22C4.66994 11.74 4.71994 11.97 6.45994 12.69C7.76994 13.23 9.06994 13.76 10.3699 14.31C11.1699 14.65 13.4699 15.24 14.0199 16.01C14.2699 16.36 14.1499 18.13 14.5199 18.89C15.9699 21.86 20.6799 24.13 23.2799 26.1C27.3099 29.16 31.3499 32.23 35.3899 35.3ZM63.3699 15.45C63.6599 15.3 63.8799 15.48 63.3699 15.45V15.45ZM42.9099 52.9C45.9699 48.62 49.1299 44.44 52.5999 40.48C53.4399 41.11 54.2899 41.84 54.6499 42.74C55.2299 44.18 54.8699 45.65 55.6299 47.14C56.6599 49.27 58.7299 48.91 60.7199 48.8C64.6799 48.59 68.7599 52.56 71.6099 55.04C72.9199 56.18 76.3699 58.45 76.8899 60.01C77.4499 61.71 75.8299 63.52 74.9199 64.87C73.4399 67.04 70.9899 71.29 68.4599 72C66.9299 72.43 66.8999 72.09 65.6999 71.18C64.6399 70.38 63.5699 69.58 62.5199 68.77C60.8699 67.5 59.2199 66.23 57.5999 64.91C56.2699 63.83 54.5699 62.71 53.5399 61.34C52.5099 59.97 52.7799 58.69 52.5199 57.1C52.2199 55.23 51.4499 54.26 49.4699 54.22C47.4199 54.18 46.3799 54.93 44.3599 53.87C43.8399 53.6 43.3599 53.26 42.9099 52.9ZM43.2799 46.04C44.0299 45.02 44.7799 43.99 45.5299 42.97C45.9499 43.28 46.3599 43.59 46.7799 43.9C45.9999 44.89 45.2199 45.89 44.4599 46.9C44.0599 46.62 43.6699 46.33 43.2799 46.04ZM11.1899 68.26C14.1399 63.57 17.8499 59.42 21.4499 55.23C30.3899 44.78 39.5899 34.55 48.0199 23.67C48.2999 23.3 48.3599 22.62 48.0099 22.27C44.1699 18.48 42.5799 12.91 45.6399 8.12996C48.0099 4.42996 51.1899 2.81996 55.2199 2.70996C54.4999 4.46996 53.8099 6.23996 53.1199 8.00996C52.7699 8.89996 51.9599 10.19 52.0499 11.2C52.2199 13.35 54.7599 16.35 55.7799 18.23C56.0099 18.66 56.4599 19.01 56.9899 18.91C59.1599 18.5 63.2899 18.6 64.9699 17.1C65.8499 16.32 66.2499 14.18 66.6999 13.12C67.2999 11.7 67.8999 10.29 68.4999 8.86996C72.3699 12.53 72.4199 19.13 68.9999 23.21C65.1899 27.75 60.3099 28.19 54.9199 27.28C54.4399 27.2 54.0899 27.39 53.8799 27.7C53.8699 27.71 53.8599 27.72 53.8599 27.73C51.1499 31.45 48.4299 35.16 45.7099 38.88C37.8899 49.58 30.1199 60.32 22.1699 70.92C20.6599 72.94 19.0799 75.58 16.6399 76.53C13.3099 77.83 11.0699 75.78 10.3599 72.78C9.77994 70.44 10.0399 70.1 11.1899 68.26Z" fill="#16478E"/>
</svg>
