<svg width="40" height="40" viewBox="0 0 40 40" fill="none" xmlns="http://www.w3.org/2000/svg">
<path d="M8.33325 28.3333H6.66659C5.78253 28.3333 4.93468 27.9821 4.30956 27.357C3.68444 26.7319 3.33325 25.8841 3.33325 25V8.33333C3.33325 7.44928 3.68444 6.60143 4.30956 5.97631C4.93468 5.35119 5.78253 5 6.66659 5H33.3333C34.2173 5 35.0652 5.35119 35.6903 5.97631C36.3154 6.60143 36.6666 7.44928 36.6666 8.33333V25C36.6666 25.8841 36.3154 26.7319 35.6903 27.357C35.0652 27.9821 34.2173 28.3333 33.3333 28.3333H31.6666" stroke="white" stroke-width="2" stroke-linecap="round" stroke-linejoin="round"/>
<path d="M20.0001 25L28.3334 35H11.6667L20.0001 25Z" stroke="white" stroke-width="2" stroke-linecap="round" stroke-linejoin="round"/>
</svg>
