<svg width="98" height="77" viewBox="0 0 98 77" fill="none" xmlns="http://www.w3.org/2000/svg">
<path d="M22.98 69.6251C27.0357 69.684 31.5898 70.1851 32.0393 65.2042C32.5964 59.1328 32.1371 52.747 32.1859 46.6363C32.2055 43.6891 33.8571 36.8023 30.1923 35.4072C28.1107 34.6115 24.7097 35.0044 22.4522 34.749C20.2534 34.4936 18.1131 34.4739 15.9045 34.5427C12.0442 34.6606 10.1092 34.8767 10.0897 39.0815C10.0603 45.0252 9.56193 50.959 9.61079 56.9027C9.37624 59.6437 8.9267 65.1452 10.4513 67.4834C12.7576 70.9808 19.7158 69.576 22.98 69.6251ZM15.4354 37.4998C18.4943 37.1854 21.4945 37.6864 24.5143 37.9812C25.8043 38.1089 28.4723 37.6373 29.2932 38.659C29.9773 39.5138 29.2736 44.1803 29.2639 45.2216C29.2345 48.7977 29.1954 52.3737 29.1661 55.9399C29.1466 58.1307 29.127 60.3215 29.1173 62.5025C29.0977 66.1375 27.9836 66.7662 24.2797 66.7368C22.0418 66.7171 17.3997 67.5325 14.7122 66.5698C15.4549 65.941 16.1488 65.2435 16.7742 64.487C17.6733 63.3965 16.1195 61.8246 15.2204 62.925C14.5363 63.76 13.774 64.487 12.9531 65.1551C12.9335 65.1059 12.8944 65.0666 12.8749 65.0175C12.5231 64.1628 12.3863 62.866 12.3569 61.5004C13.5785 60.4394 14.7904 59.3784 16.012 58.3174C17.087 57.3841 15.5233 55.8318 14.4581 56.7553C13.7838 57.3448 13.0997 57.9342 12.4254 58.5237C12.4644 57.9146 12.5035 57.3546 12.5426 56.9027C12.5329 56.2445 12.5524 55.5961 12.5719 54.9378C14.0281 53.5428 15.5429 52.2067 17.1163 50.959C18.2304 50.0748 16.657 48.5226 15.5624 49.397C14.5754 50.1829 13.6176 50.9983 12.6794 51.8432C12.7185 51.0081 12.7674 50.1731 12.8163 49.3478C14.1551 48.2475 15.4842 47.1472 16.8231 46.0469C17.9177 45.1431 16.354 43.5908 15.2692 44.4848C14.507 45.1136 13.7447 45.7423 12.9824 46.3711C13.0117 45.8799 13.041 45.3887 13.0606 44.8876C13.0801 44.4947 13.0801 44.1017 13.0704 43.6989C14.2333 42.8344 15.4061 41.9698 16.569 41.1053C17.6929 40.2702 16.5983 38.3545 15.4549 39.1994C14.6438 39.7987 13.8424 40.3979 13.0313 40.9972C13.0313 40.6141 13.041 40.2407 13.0704 39.8674C13.2365 37.7847 13.2756 37.7257 15.4354 37.4998Z" fill="#16478E"/>
<path d="M40.8251 66.8448C42.2617 70.1752 46.806 69.4188 49.689 69.3402C52.6795 69.2616 58.934 70.3913 61.4652 68.4265C63.9963 66.4715 62.6575 59.5257 62.6672 56.7749C62.6966 50.1927 62.7259 43.6006 62.765 37.0184C62.7845 33.8157 62.7943 30.6031 62.8138 27.4004C62.8236 25.917 63.2927 23.2841 62.3936 21.9283C60.8397 19.5508 55.064 20.3564 52.6599 20.0814C50.1679 19.7965 44.0794 18.9417 41.8414 20.6217C39.4569 22.3999 40.786 28.8937 40.7273 31.448C40.571 38.3152 40.1312 45.1725 40.2094 52.0495C39.9944 54.9083 40.1507 57.6788 40.2973 60.5278C40.4048 62.3649 40.0628 65.0666 40.8251 66.8448ZM43.6005 23.5198C44.9687 21.4862 52.6306 23.0778 54.5558 23.2939C56.7352 23.5395 59.0709 22.8027 59.9015 24.738C60.6443 26.4573 59.8722 30.5835 59.8625 32.4206C59.8331 38.2071 59.8038 43.9838 59.7843 49.7702C59.7745 52.5996 59.755 55.429 59.7452 58.2584C59.7354 59.7517 60.5368 64.3593 59.667 65.6168C58.807 66.8743 51.7901 66.8448 47.9397 66.6287C49.0049 65.8526 50.0701 65.0863 51.1354 64.3101C52.269 63.4849 51.1744 61.5692 50.0213 62.4042C48.2817 63.6617 46.5421 64.9291 44.8026 66.1866C43.9719 65.8427 43.581 65.2336 43.4051 64.4772C45.5258 62.866 47.5976 61.1959 49.6108 59.4668C50.6858 58.5433 49.1222 56.9812 48.0569 57.9047C46.4933 59.2506 44.8808 60.5475 43.2585 61.8148C43.2683 61.3825 43.2683 60.9404 43.2389 60.5082C43.2194 60.0562 43.1901 59.6141 43.1705 59.1721C45.1251 57.0205 47.2653 55.0753 49.6303 53.3954C50.7738 52.58 49.6792 50.6643 48.5163 51.4895C46.5715 52.8845 44.744 54.4171 43.0533 56.1069C43.0435 55.3406 43.0435 54.5645 43.063 53.7884C44.7733 51.9316 46.6106 50.2123 48.5749 48.6306C49.6792 47.7465 48.1156 46.1844 47.021 47.0686C45.6626 48.1591 44.3824 49.3183 43.151 50.5365C43.151 49.3675 43.1608 48.1984 43.1803 47.0391C44.744 45.3985 46.464 43.9445 48.3599 42.7066C49.5424 41.9305 48.4381 40.0148 47.2458 40.8007C45.8287 41.734 44.4996 42.7754 43.2487 43.9052C43.278 42.9915 43.3074 42.0779 43.3367 41.1642C44.9296 39.4548 46.679 37.932 48.614 36.6156C49.7769 35.8198 48.6824 33.9041 47.4999 34.7097C46.0633 35.6823 44.7146 36.7728 43.4442 37.9517C43.4637 37.4998 43.4735 37.0478 43.493 36.5861C43.5126 36.1047 43.5224 35.6135 43.5419 35.1321C44.9394 33.4129 46.5226 31.8901 48.3403 30.6228C49.4935 29.8172 48.399 27.9015 47.2262 28.7169C45.9362 29.6207 44.744 30.6326 43.6396 31.7427C43.6592 31.0354 43.6689 30.3182 43.6787 29.6109C44.959 28.2944 46.3369 27.1057 47.8517 26.0643C49.0147 25.2686 47.9103 23.343 46.7376 24.1584C45.6235 24.9247 44.5778 25.7696 43.5712 26.6636C43.4539 25.4454 43.3171 23.9423 43.6005 23.5198Z" fill="#16478E"/>
<path d="M71.8732 64.261C72.0589 66.6385 72.3423 68.0827 74.6975 69.0062C77.043 69.9198 80.0432 69.5858 82.5157 69.6644C85.516 69.7528 88.9169 69.9689 91.7412 68.7016C95.4745 67.0315 93.9499 60.7538 93.9694 57.2269C94.0085 49.9864 94.0476 42.7459 94.0769 35.5054C94.116 28.1667 94.1551 20.8378 94.1942 13.4991C94.2138 10.3848 95.797 2.65314 92.2006 1.28757C89.689 0.334612 85.8287 0.69811 83.1021 0.462328C80.6296 0.246194 77.0234 -0.00923629 74.5802 0.658813C70.6809 1.72966 72.2152 7.34913 72.1957 10.5715C72.098 24.3844 71.4236 38.2268 71.6289 52.0397C71.3357 56.0774 71.5507 60.2233 71.8732 64.261ZM75.0396 4.96184C75.5966 2.63349 79.7598 3.22294 81.9978 3.33101C83.8448 3.41943 88.5065 3.31136 90.0603 4.04818C91.8292 4.87342 91.3015 6.406 91.2917 8.48874C91.2624 13.5188 91.2428 18.5488 91.2135 23.5788C91.1549 35.2697 91.0963 46.9605 91.0376 58.6612C91.0278 60.2626 91.6924 63.7502 91.0278 65.2042C89.9528 67.562 84.5973 66.7859 82.5157 66.7269C81.3137 66.6876 79.9064 66.8153 78.6066 66.7367C79.0562 66.3241 79.496 65.9017 79.9064 65.4498C80.8641 64.3986 79.3103 62.8365 78.3525 63.8877C77.6294 64.6737 76.8475 65.4007 76.0168 66.0687C75.7921 65.9213 75.5868 65.7543 75.4109 65.548C76.4468 64.3887 77.5218 63.259 78.6555 62.1979C79.6914 61.2253 78.1278 59.6633 77.1016 60.6359C76.2318 61.4513 75.4109 62.306 74.5998 63.1804C74.4923 62.5123 74.4141 61.8148 74.3652 61.0976C75.6552 60.0366 76.9355 58.9756 78.2255 57.9047C79.32 57.0009 77.7564 55.4487 76.6716 56.3427C75.8702 57.0009 75.0787 57.6591 74.2773 58.3272C74.2773 57.8753 74.2871 57.4332 74.2968 56.9813C76.2416 55.5273 78.1669 54.034 80.0432 52.5014C81.1476 51.6074 79.5741 50.0453 78.4894 50.9393C77.1505 52.0298 75.7921 53.0909 74.4239 54.1322C74.463 53.4151 74.5118 52.7175 74.5607 52.0593C74.5509 51.7155 74.5607 51.3618 74.5607 51.0179C76.0364 49.6818 77.5903 48.444 79.2321 47.3142C80.3951 46.5184 79.2907 44.6027 78.118 45.4083C76.8769 46.263 75.6943 47.1865 74.5412 48.1394C74.5412 47.3535 74.5314 46.5676 74.5314 45.7718C75.8702 44.7501 77.2091 43.7283 78.5187 42.6575C79.623 41.7635 78.0594 40.2113 76.9648 41.0954C76.1732 41.7438 75.3621 42.353 74.5509 42.9817C74.5607 42.0975 74.5705 41.2232 74.59 40.339C76.0462 38.9538 77.5805 37.6766 79.2321 36.537C80.3853 35.7314 79.2907 33.8157 78.118 34.6311C76.9062 35.476 75.753 36.3995 74.6291 37.3622C74.6584 36.0654 74.6877 34.7686 74.7171 33.4718C75.7627 32.4894 76.8475 31.5561 78.0007 30.6916C78.4796 30.3281 78.7141 29.7386 78.3916 29.1786C78.1278 28.7071 77.3655 28.4222 76.8866 28.7857C76.1634 29.326 75.4696 29.886 74.7757 30.4558C74.7855 29.8467 74.805 29.2376 74.8148 28.6285C76.4664 27.3611 78.1962 26.2019 79.9944 25.1605C81.216 24.4433 80.1116 22.5374 78.8803 23.2546C77.5023 24.0602 76.1732 24.9345 74.8734 25.8678C74.893 24.9935 74.9125 24.1191 74.9321 23.2448C74.9321 23.1465 74.9321 23.0483 74.9418 22.95C76.1928 21.8301 77.4339 20.7101 78.6848 19.5902C79.7403 18.6372 78.1864 17.085 77.1309 18.0281C76.4175 18.6667 75.7041 19.3052 75.0005 19.9438C75.02 18.8337 75.0396 17.7334 75.0591 16.6232C76.0559 15.6015 77.1016 14.6191 78.2353 13.7349C78.7044 13.3616 78.6164 12.5658 78.2353 12.1728C77.7759 11.7013 77.1505 11.8093 76.6814 12.1728C76.1341 12.6051 75.6162 13.057 75.0982 13.5188C75.108 12.556 75.1177 11.603 75.1275 10.6403C76.5543 9.55959 77.9519 8.4298 79.2907 7.23124C80.3462 6.28811 78.7923 4.72605 77.7369 5.66918C76.8769 6.4453 75.9778 7.18212 75.0787 7.89929C74.9809 6.87757 74.8539 5.7576 75.0396 4.96184Z" fill="#16478E"/>
<path d="M95.6992 73.2306C81.2453 73.7906 66.7913 73.8495 52.3374 73.5548C38.6261 73.2699 24.9149 72.2973 11.2037 72.5331C9.79644 72.5527 6.59097 73.1422 5.52574 72.4643C4.25528 71.6489 4.34323 68.4658 4.2846 67.228C4.138 64.1432 4.02073 61.0583 3.94255 57.9735C3.79596 51.853 3.79596 45.7325 3.86437 39.612C4.01096 27.1254 4.25528 14.6486 4.00118 2.1521C3.96209 0.256021 1.03026 0.256021 1.06935 2.1521C1.34299 15.8864 0.991167 29.6011 0.893439 43.3354C0.844576 49.8685 0.912985 56.3918 1.1573 62.9249C1.3039 66.8547 -0.0349746 73.8102 4.73414 75.3035C7.18711 76.0698 10.246 75.4902 12.7674 75.441C16.3149 75.3723 19.8331 75.4018 23.3904 75.5491C31.1695 75.8733 38.9487 76.168 46.7376 76.3645C63.0581 76.787 79.3787 76.8066 95.6894 76.1681C97.5756 76.1091 97.5854 73.1618 95.6992 73.2306Z" fill="#16478E"/>
</svg>
