<svg width="97" height="78" viewBox="0 0 97 78" fill="none" xmlns="http://www.w3.org/2000/svg">
<path d="M96.1556 36.3658C95.9992 31.3259 96.0969 26.2861 96.1947 21.2463C96.2631 18.0239 96.2729 14.8408 96.0969 11.6283C95.9601 9.06418 96.4097 5.7927 95.7158 3.32681C95.0219 0.841276 93.1162 0.723385 90.8294 0.605494C84.9071 0.320591 78.9164 0.556373 72.9843 0.536724C59.7422 0.477779 46.5001 0.399185 33.2482 0.379536C26.2704 0.369712 19.3317 0.546549 12.3735 1.00829C9.86191 1.1753 5.67915 0.693913 3.63664 2.45245C2.27823 3.62154 2.11209 5.48815 1.8189 7.1288C1.1739 10.7932 1.08595 14.6247 0.939355 18.3383C0.616853 26.4629 0.763445 34.5876 0.265033 42.7123C-0.145424 49.2847 0.118441 55.8375 0.304124 62.4099C0.411625 66.094 -0.761109 72.0377 2.34664 74.8081C5.55211 77.6571 12.3246 76.4291 16.1263 76.547C23.1236 76.7533 30.1111 76.9596 37.1084 77.0677C50.2235 77.274 63.3093 76.8024 76.4146 77.3133C81.428 77.5098 86.9398 77.3133 91.8849 76.4586C94.8265 75.9477 95.7451 74.1793 96.0383 71.3794C97.2501 59.8065 96.5074 47.9486 96.1556 36.3658ZM8.66963 4.19135C9.901 4.07346 11.1519 4.04398 12.3833 3.95557C17.4847 3.61172 22.5763 3.37593 27.6875 3.33664C38.6623 3.25804 49.6469 3.38576 60.6217 3.43488C65.342 3.45453 70.0623 3.47418 74.7825 3.49383C79.7569 3.51347 85.171 2.89455 90.0867 3.54295C92.3931 3.8475 92.5006 4.04398 92.911 6.41163C93.2922 8.59261 93.1553 11.1567 93.2531 13.3672C93.2628 13.6914 93.2628 14.0156 93.2726 14.3398C63.5438 13.2591 33.8052 13.1609 4.06665 14.0451C4.18392 12.3553 4.33051 10.6754 4.52597 8.99541C4.9071 5.82217 5.50324 4.4959 8.66963 4.19135ZM93.5365 58.1953C93.4094 62.2232 93.5072 66.3199 93.1847 70.3381C92.9501 73.2559 91.7578 73.1282 89.0801 73.5702C86.3242 74.0222 83.5389 74.3758 80.7439 74.4348C70.4727 74.6706 60.0842 74.1892 49.7935 74.2088C37.6264 74.2285 25.4593 73.8748 13.2922 73.5015C9.48077 73.3836 3.58778 73.9043 3.34346 68.9823C3.20664 66.202 3.2555 63.4021 3.16755 60.6219C2.98187 54.6487 2.81573 48.6854 3.1871 42.7123C3.7246 33.9195 3.44119 25.0679 3.92983 16.2654C33.7173 15.3713 63.534 15.4696 93.3117 16.5601C93.341 20.7256 93.1553 24.8911 93.1358 29.0467C93.0967 38.7825 93.8394 48.4496 93.5365 58.1953Z" fill="#16478E"/>
<path d="M11.2399 12.2668C13.0381 12.0507 14.9144 11.0093 14.6017 8.91677C14.3281 7.05017 13.0674 5.79266 11.1519 5.70424C9.32442 5.66495 7.98554 7.47261 7.70213 9.14273C7.35031 11.2255 9.35373 12.4928 11.2399 12.2668ZM9.93033 9.28027C10.0769 8.73994 10.4971 7.90488 11.1519 7.9147C11.7481 7.94417 12.139 8.20943 12.3149 8.75959C12.6081 9.67324 12.0803 9.87955 11.2594 10.0367C10.8685 10.1055 10.546 10.1055 10.1746 9.9385C9.79351 9.77148 9.81305 9.69289 9.93033 9.28027Z" fill="#16478E"/>
<path d="M20.4557 12.1588C22.4982 12.3258 23.9348 10.8227 24.1595 8.86769C24.3843 6.84389 22.8402 5.40955 20.8661 5.37026C19.0973 5.28184 17.1818 6.56881 17.0841 8.45507C16.9766 10.4199 18.55 12.0016 20.4557 12.1588ZM19.2829 8.47472C19.4295 7.80667 20.27 7.55124 20.8661 7.58071C21.5893 7.60036 22.0779 7.97368 21.9802 8.7105C21.8629 9.53574 21.345 10.0957 20.485 9.94836C19.8204 9.83047 19.1168 9.22136 19.2829 8.47472Z" fill="#16478E"/>
<path d="M30.3653 12.0017C32.1732 11.8936 33.7369 10.3414 33.7369 8.4846C33.7369 6.63764 31.968 4.99699 30.16 5.07559C28.1859 5.15418 26.7102 6.82431 26.5832 8.77933C26.4366 10.8621 28.4302 12.1196 30.3653 12.0017ZM30.1503 7.28605C31.7432 7.21728 31.9778 9.48668 30.3946 9.78141C29.7691 9.8993 28.8114 9.63404 28.7625 8.9267C28.7039 8.1604 29.3977 7.31552 30.1503 7.28605Z" fill="#16478E"/>
<path d="M36.1507 26.237C33.0918 23.7416 28.8211 25.8538 26.0945 27.7499C20.9638 31.3259 16.7615 35.8156 11.9142 39.7355C4.55528 46.2097 13.4681 53.2733 18.5694 57.1244C22.029 59.7278 26.1727 63.3039 30.3945 64.5614C33.1895 65.3964 37.4896 64.2961 37.6948 60.7692C37.8902 57.2816 32.5348 53.7842 30.1991 51.7309C28.7722 50.4734 27.277 49.2847 25.7231 48.1942C25.0488 47.7128 24.3452 47.2707 23.6513 46.8089C22.1463 45.7872 21.5501 46.0034 22.4688 44.5395C24.8045 40.826 43.1773 31.9841 36.1507 26.237ZM20.094 46.9956C21.7261 49.039 25.2833 50.4832 27.3356 52.173C28.9384 53.4993 30.4238 54.9434 31.9191 56.3876C32.525 56.9672 34.3623 58.156 34.6164 59.0008C35.8477 63.1369 32.5348 62.8421 30.502 62.1741C30.6975 62.0267 30.8832 61.8892 31.0786 61.7418C31.5575 61.3881 31.792 60.7889 31.4695 60.2289C31.1959 59.7573 30.4434 59.4724 29.9645 59.8359C29.5345 60.1601 29.1045 60.4745 28.6745 60.7987C28.5181 60.9166 28.4009 61.0639 28.3129 61.2211C27.8536 60.9853 27.3943 60.7397 26.9447 60.4745C27.1011 60.3566 27.2672 60.2387 27.4431 60.1405C28.655 59.4135 27.5506 57.4977 26.329 58.2346C25.8502 58.5195 25.4104 58.8633 24.9902 59.2268C24.4429 58.8535 23.9054 58.4703 23.3777 58.0774C23.6806 57.9104 23.9933 57.7532 24.2963 57.5862C25.5472 56.9181 24.4331 55.0122 23.1822 55.6802C22.5958 55.9946 22.0192 56.2992 21.4329 56.6136C21.0811 56.3385 20.739 56.0732 20.397 55.808C20.5729 55.6901 20.7585 55.5722 20.9442 55.4641C22.1756 54.7666 21.0713 52.8607 19.8301 53.5582C19.3904 53.8038 18.9799 54.1084 18.589 54.4227C18.0906 54.0494 17.5433 53.6368 16.9863 53.1947C17.2697 52.9688 17.5628 52.7723 17.8951 52.6151C18.4326 52.3596 18.5694 51.5835 18.286 51.1021C17.9635 50.552 17.3185 50.4537 16.781 50.7092C16.224 50.9744 15.7158 51.3477 15.2662 51.7702C14.8558 51.4067 14.4649 51.0334 14.0837 50.6502C14.4356 50.4144 14.7874 50.1787 15.1392 49.9429C16.3119 49.1569 15.2174 47.2412 14.0251 48.037C13.5658 48.3415 13.1065 48.6461 12.6471 48.9605C12.139 48.2433 11.7383 47.4966 11.5135 46.7402C11.8653 46.7402 12.2074 46.7402 12.5592 46.7402C13.9762 46.7402 13.9762 44.5297 12.5592 44.5297C12.1683 44.5297 11.7871 44.5297 11.3962 44.5297C11.533 43.8518 11.8555 43.1641 12.3833 42.4764C12.7937 42.9087 13.2042 43.341 13.6928 43.6848C14.1717 44.0287 14.9144 43.7732 15.1978 43.2919C15.5203 42.7319 15.2858 42.1326 14.8069 41.7789C14.9828 41.9066 14.631 41.6119 14.5919 41.5824C14.4551 41.4449 14.3183 41.3074 14.1815 41.1698C14.1033 41.0912 14.0251 41.0126 13.9567 40.9242C14.3281 40.6197 14.6897 40.3151 15.0512 40.0007C15.4812 40.4134 15.8819 40.8456 16.2533 41.3074C16.6247 41.7789 17.426 41.7003 17.8072 41.3074C18.2665 40.8456 18.1785 40.2169 17.8072 39.7453C17.4651 39.313 17.0938 38.9102 16.7028 38.5271C17.2306 38.0555 17.7485 37.5741 18.2665 37.1026C18.6769 37.4759 19.107 37.8394 19.5076 38.2324C20.5142 39.2344 22.0681 37.6724 21.0615 36.6703C20.6901 36.3068 20.2992 35.963 19.9083 35.6191C20.5045 35.0788 21.1201 34.5581 21.7358 34.0374C22.1267 34.4992 22.547 34.9216 22.9574 35.3735C23.9054 36.4345 25.4593 34.8725 24.5113 33.8115C24.1693 33.4283 23.7588 33.0845 23.4363 32.6817C23.7099 32.4754 23.9836 32.2592 24.267 32.0529C24.6774 31.7582 25.0683 31.4536 25.4593 31.1393C25.6645 31.4143 25.8599 31.6992 26.0652 31.9743C26.417 32.4557 27.0229 32.6915 27.5702 32.3673C28.0393 32.0922 28.3129 31.3357 27.9611 30.8544C27.707 30.5007 27.4431 30.1372 27.189 29.7835C27.6777 29.4102 28.1956 29.0663 28.7331 28.752C28.7625 28.7913 28.7918 28.8306 28.8309 28.8699C29.1534 29.1941 29.4856 29.5084 29.8081 29.8326C30.8245 30.8249 32.3784 29.2628 31.362 28.2706C31.1763 28.0839 30.9907 27.9071 30.805 27.7204C32.1732 27.1899 33.3459 27.1997 34.245 28.8895C35.3884 31.0312 34.1864 31.5322 32.7302 33.0255C29.0947 36.7489 24.4527 39.313 20.7781 42.9185C19.4001 44.235 18.8333 45.4139 20.094 46.9956Z" fill="#16478E"/>
<path d="M78.0368 32.8389C74.5772 30.2355 70.4336 26.6595 66.2117 25.402C63.4167 24.5669 59.1167 25.6672 58.9115 29.1941C58.716 32.6817 64.0715 36.1792 66.4072 38.2324C67.834 39.4899 69.3293 40.6787 70.8831 41.7692C71.5574 42.2506 72.2611 42.6927 72.955 43.1544C74.46 44.1761 75.0561 43.96 74.1375 45.4238C71.8115 49.1275 53.4387 57.9694 60.4653 63.7166C63.5242 66.2119 67.7949 64.0997 70.5215 62.2036C75.6522 58.6276 79.8545 54.1379 84.7018 50.218C92.0607 43.7537 83.148 36.69 78.0368 32.8389ZM83.1382 48.6658C79.4148 51.672 76.2093 55.1498 72.3295 57.9497C70.629 59.1778 69.1338 60.6514 67.2574 61.6043C65.2638 62.6162 63.5731 63.3727 62.3613 61.1033C61.8629 60.1798 61.8238 59.5609 62.0388 59.0304C62.5665 59.4528 63.0942 59.8949 63.6513 60.2879C64.1301 60.6416 64.8729 60.3665 65.1563 59.8949C65.4788 59.3349 65.2442 58.7357 64.7654 58.382C64.3256 58.0578 63.8956 57.7139 63.4656 57.3701C63.6024 57.2424 63.7392 57.1147 63.876 56.9673C64.1985 56.6333 64.5406 56.3287 64.8729 56.0143C65.3224 56.4957 65.7622 56.9771 66.2606 57.3996C66.7102 57.7925 67.3747 57.8417 67.8145 57.3996C68.2054 57.0066 68.264 56.2305 67.8145 55.8375C67.3552 55.4445 66.9447 55.0024 66.5342 54.5604C67.062 54.1183 67.5995 53.6958 68.1467 53.2734C68.5963 53.853 69.0458 54.4425 69.5638 54.973C70.5508 55.9947 72.1047 54.4326 71.1177 53.4109C70.6779 52.9492 70.2772 52.4481 69.8863 51.9471C70.3359 51.6131 70.7854 51.2692 71.2252 50.9352C71.6454 51.3282 71.9972 51.7703 72.3686 52.2124C72.7595 52.6643 73.5218 52.6152 73.9225 52.2124C74.372 51.7604 74.3134 51.1022 73.9225 50.6503C73.6097 50.2868 73.3068 49.9233 72.9745 49.5795C73.5511 49.1177 74.1179 48.6363 74.6652 48.1451C74.9486 48.3514 75.2027 48.5774 75.447 48.8328C76.4243 49.8644 77.9782 48.3023 77.0009 47.2708C76.7761 47.035 76.5318 46.809 76.2777 46.6027C76.6784 46.1508 76.9618 45.7087 77.1084 45.2568C77.5677 45.2863 78.0173 45.3157 78.4766 45.3452C79.0727 45.3845 79.5809 44.8147 79.5809 44.2351C79.5809 43.6063 79.0727 43.1642 78.4766 43.1249C77.8316 43.0856 77.1866 43.0463 76.5416 43.007C76.5318 42.9972 76.522 42.9776 76.5122 42.9677C76.2386 42.6239 75.8868 42.2899 75.5154 41.9755C75.8672 41.8085 76.2191 41.6415 76.5709 41.4744C77.1084 41.219 77.2452 40.4429 76.9618 39.9615C76.6393 39.4114 75.9943 39.3131 75.4568 39.5685C74.7922 39.8829 74.1277 40.1973 73.4631 40.5117C73.1113 40.2955 72.7595 40.0794 72.4077 39.8633C72.7106 39.7159 73.0038 39.5685 73.297 39.431C73.8345 39.1657 73.9713 38.4093 73.6879 37.9181C73.3654 37.3679 72.7204 37.2598 72.1829 37.5251C71.577 37.8198 70.9809 38.1146 70.3749 38.4093C70.3163 38.4388 70.287 38.4879 70.2381 38.5272C69.8863 38.2914 69.554 38.0556 69.2608 37.81C69.124 37.7019 69.0068 37.5742 68.8699 37.4661C69.2804 37.2402 69.7006 37.0142 70.1306 36.8177C70.6681 36.5623 70.8049 35.7862 70.5215 35.3048C70.199 34.7547 69.554 34.6564 69.0165 34.9118C68.3617 35.2164 67.7363 35.5701 67.1304 35.9336C66.7102 35.5406 66.2899 35.1476 65.8697 34.7448C66.114 34.5975 66.3583 34.4599 66.6124 34.3519C67.1597 34.1259 67.5506 33.615 67.3845 32.9961C67.2379 32.4754 66.5831 31.994 66.0358 32.22C65.381 32.4951 64.8142 32.8291 64.2474 33.2319C63.9444 32.9863 63.5633 32.6916 63.192 32.387C63.4656 32.1512 63.749 31.9351 64.0715 31.7583C65.3224 31.0902 64.2083 29.1745 62.9574 29.8524C62.5665 30.0587 62.2147 30.3239 61.8726 30.6088C60.8953 26.6496 64.521 27.2096 66.4267 27.9366C70.3652 29.4299 74.1668 32.6621 77.4797 35.1967C81.3205 38.1047 89.0507 43.4688 83.1382 48.6658Z" fill="#16478E"/>
<path d="M51.1324 24.9992C47.9073 24.9108 46.9692 27.7893 46.0701 30.4909C44.0862 36.5034 42.5616 42.6828 41.4084 48.9114C40.8025 52.1731 36.7566 66.1432 44.1448 65.2688C47.0473 64.9249 48.8749 61.85 49.774 59.3939C51.6894 54.2067 52.7351 48.4497 53.8785 43.0365C54.4356 40.3938 54.9242 37.7412 55.4324 35.0887C55.7744 33.2909 56.7126 30.9527 56.4781 29.0959C56.1067 26.1191 53.8687 25.0679 51.1324 24.9992ZM51.0835 45.5613C50.5362 47.9683 49.9499 50.3752 49.3244 52.7625C48.5328 55.7982 47.8976 61.8893 44.1253 61.7812C42.0535 61.7222 41.9459 61.5258 42.0241 60.1897C42.288 60.2388 42.5519 60.3174 42.806 60.4058C43.363 60.6023 44.008 60.1798 44.1546 59.6297C44.3207 59.0206 43.9494 58.4606 43.3826 58.2739C42.9819 58.1364 42.5714 58.0578 42.161 57.9988C42.2 57.6059 42.2489 57.2031 42.3075 56.8101C42.7962 56.8985 43.2848 56.9673 43.7832 56.9771C45.2003 57.0066 45.2003 54.7961 43.7832 54.7667C43.3923 54.7568 43.0307 54.7077 42.6594 54.6291C42.6985 54.4032 42.7375 54.1772 42.7669 53.9611C42.7864 53.8432 42.806 53.7253 42.8255 53.6172C43.3044 53.6762 43.7832 53.7548 44.2523 53.8727C45.6205 54.2165 46.2069 52.0846 44.8387 51.7408C44.3012 51.6033 43.7441 51.5148 43.1969 51.4461C43.3044 50.7977 43.4021 50.1493 43.5291 49.5107C44.1546 49.5893 44.7703 49.7465 45.3664 49.9724C45.9235 50.1787 46.5685 49.7367 46.7151 49.1963C46.8812 48.5774 46.5098 48.0469 45.943 47.8406C45.298 47.595 44.6237 47.4574 43.9494 47.3592C44.0471 46.8778 44.1351 46.4062 44.2426 45.9248C44.741 46.0427 45.2394 46.1508 45.7476 46.2687C47.1255 46.5831 47.7119 44.4512 46.3339 44.1368C45.7867 44.0091 45.2296 43.8814 44.6823 43.7537C44.7703 43.2919 44.8778 42.7516 44.9951 42.1523C45.3371 42.2407 45.6889 42.339 46.031 42.4274C47.3992 42.7909 47.9855 40.659 46.6173 40.2955C46.2264 40.1875 45.8355 40.0892 45.4348 39.9812C45.4935 39.7061 45.5521 39.431 45.6107 39.1461C46.2264 39.2836 46.8519 39.4114 47.4676 39.5489C48.0442 39.6766 48.6599 39.3721 48.8162 38.7728C48.9628 38.2226 48.6305 37.5349 48.0442 37.417C47.3992 37.2795 46.7444 37.142 46.0994 36.9946C46.2069 36.5525 46.3144 36.1202 46.4317 35.6781C46.8519 35.7764 47.2917 35.8353 47.7119 35.9434C49.0801 36.3069 49.6664 34.175 48.2983 33.8115C47.8878 33.7035 47.4578 33.6347 47.0473 33.5463C47.1353 33.2712 47.2233 32.9863 47.3112 32.721C47.7119 32.78 48.1028 32.8782 48.4839 33.0256C49.041 33.2319 49.686 32.7898 49.8326 32.2495C49.9987 31.6306 49.6274 31.1 49.0605 30.8937C48.738 30.7758 48.4155 30.6972 48.0833 30.6285C48.2201 30.3043 48.3667 29.9997 48.5133 29.705C48.8553 29.8622 49.2071 29.9801 49.5785 30.0292C50.1649 30.1176 50.761 29.8818 50.9271 29.2531C51.0737 28.7324 50.7512 27.9858 50.1551 27.8973C50.028 27.8777 49.9108 27.8384 49.7935 27.7991C50.204 27.3963 50.6437 27.1802 51.1031 27.19C56.3608 27.3472 51.6503 43.0267 51.0835 45.5613Z" fill="#16478E"/>
</svg>
