<svg width="88" height="72" viewBox="0 0 88 72" fill="none" xmlns="http://www.w3.org/2000/svg">
<path d="M43.7167 63.2522C30.395 63.2522 19.5601 52.8994 19.5601 40.1759C19.5601 27.4524 30.395 17.0996 43.7167 17.0996C57.0384 17.0996 67.8734 27.4524 67.8734 40.1759C67.8823 52.8994 57.0384 63.2522 43.7167 63.2522ZM43.7167 19.8432C31.9759 19.8432 22.4287 28.9618 22.4287 40.1759C22.4287 51.39 31.9759 60.5086 43.7167 60.5086C55.4576 60.5086 65.0048 51.3811 65.0048 40.1759C65.0048 28.9618 55.4576 19.8432 43.7167 19.8432Z" fill="#16478E"/>
<path d="M43.7167 28.9174C50.2177 28.9174 55.502 33.9695 55.502 40.1759C55.502 46.3822 50.2177 51.4344 43.7167 51.4344C37.2158 51.4344 31.9315 46.3822 31.9315 40.1759C31.9315 33.9695 37.2158 28.9174 43.7167 28.9174ZM43.7167 24.7976C34.8267 24.7976 27.6241 31.6788 27.6241 40.1759C27.6241 48.6641 34.8267 55.5542 43.7167 55.5542C52.6068 55.5542 59.8182 48.6641 59.8182 40.1759C59.8182 31.6876 52.6068 24.7976 43.7167 24.7976Z" fill="#16478E"/>
<path d="M79.8185 71.838H74.0902C72.9001 71.838 71.9409 70.9146 71.9409 69.7781C71.9409 68.6416 72.909 67.7182 74.0902 67.7182H79.8185C81.5858 67.7182 83.0246 66.342 83.0246 64.655V20.5268C82.7937 19.6034 78.4419 17.4636 72.1452 17.4636C70.9551 17.4636 69.996 16.5402 69.996 15.4037C69.996 14.2672 70.964 13.3438 72.1452 13.3438C78.4508 13.3438 87.3319 15.5724 87.3319 20.5179V64.6461C87.3319 68.6239 83.966 71.838 79.8185 71.838Z" fill="#16478E"/>
<path d="M13.3433 71.838H7.61499C3.47639 71.838 0.101562 68.6149 0.101562 64.6638V20.5356C0.101562 15.8209 7.73933 13.3615 15.2883 13.3615C16.4784 13.3615 17.4375 14.2849 17.4375 15.4214C17.4375 16.5579 16.4695 17.4813 15.2883 17.4813C8.26332 17.4813 4.40891 19.7809 4.40891 20.5445V64.6727C4.40891 66.3597 5.84765 67.7359 7.61499 67.7359H13.3433C14.5334 67.7359 15.4926 68.6593 15.4926 69.7958C15.5014 70.9235 14.5334 71.838 13.3433 71.838Z" fill="#16478E"/>
<path d="M28.7165 14.5868C28.4323 14.5868 28.1304 14.5336 27.8551 14.4093C26.7627 13.9564 26.2653 12.74 26.7449 11.7012L30.697 3.08865C31.5407 1.25072 33.4413 0.0698242 35.5372 0.0698242H51.914C54.01 0.0698242 55.9105 1.2596 56.7542 3.08865L60.7063 11.7012C61.1859 12.74 60.6886 13.9564 59.5962 14.4093C58.5038 14.8621 57.2338 14.3915 56.7631 13.3527L52.811 4.74013C52.6512 4.40274 52.3048 4.18076 51.914 4.18076H35.5284C35.1376 4.18076 34.7912 4.40274 34.6314 4.74013L30.6793 13.3527C30.3329 14.1251 29.5425 14.5868 28.7165 14.5868Z" fill="#16478E"/>
</svg>
