<svg width="25" height="25" viewBox="0 0 25 25" fill="none" xmlns="http://www.w3.org/2000/svg">
<path d="M15.7285 9.12506H10.3285C10.1694 9.12506 10.0168 9.18827 9.90425 9.3008C9.79173 9.41332 9.72852 9.56593 9.72852 9.72506V16.1251M9.72852 21.1251H15.7285H9.72852ZM9.72852 21.1251V16.1251V21.1251ZM9.72852 21.1251H4.32852C4.16939 21.1251 4.01677 21.0618 3.90425 20.9493C3.79173 20.8368 3.72852 20.6842 3.72852 20.5251V16.7251C3.72852 16.5659 3.79173 16.4133 3.90425 16.3008C4.01677 16.1883 4.16939 16.1251 4.32852 16.1251H9.72852V21.1251ZM15.7285 21.1251V9.12506V21.1251ZM15.7285 21.1251H21.1285C21.2876 21.1251 21.4403 21.0618 21.5528 20.9493C21.6653 20.8368 21.7285 20.6842 21.7285 20.5251V3.72506C21.7285 3.56593 21.6653 3.41332 21.5528 3.3008C21.4403 3.18828 21.2876 3.12506 21.1285 3.12506H16.3285C16.1694 3.12506 16.0168 3.18828 15.9043 3.3008C15.7917 3.41332 15.7285 3.56593 15.7285 3.72506V9.12506V21.1251Z" stroke="#1E88E5" stroke-width="1.5"/>
</svg>
