<svg width="40" height="40" viewBox="0 0 40 40" fill="none" xmlns="http://www.w3.org/2000/svg">
<path d="M33.3335 11.6667H6.66683C4.82588 11.6667 3.3335 13.1591 3.3335 15.0001V31.6667C3.3335 33.5077 4.82588 35.0001 6.66683 35.0001H33.3335C35.1744 35.0001 36.6668 33.5077 36.6668 31.6667V15.0001C36.6668 13.1591 35.1744 11.6667 33.3335 11.6667Z" stroke="white" stroke-width="2" stroke-linecap="round" stroke-linejoin="round"/>
<path d="M26.6668 35V8.33333C26.6668 7.44928 26.3156 6.60143 25.6905 5.97631C25.0654 5.35119 24.2176 5 23.3335 5H16.6668C15.7828 5 14.9349 5.35119 14.3098 5.97631C13.6847 6.60143 13.3335 7.44928 13.3335 8.33333V35" stroke="white" stroke-width="2" stroke-linecap="round" stroke-linejoin="round"/>
</svg>
